<svg width="16" height="16" viewBox="0 0 16 16" fill="none" xmlns="http://www.w3.org/2000/svg">
<path fill-rule="evenodd" clip-rule="evenodd" d="M11.854 4.14604C11.9006 4.19248 11.9375 4.24766 11.9627 4.30841C11.9879 4.36915 12.0009 4.43427 12.0009 4.50004C12.0009 4.56581 11.9879 4.63093 11.9627 4.69167C11.9375 4.75242 11.9006 4.80759 11.854 4.85404L4.854 11.854C4.76011 11.9479 4.63277 12.0007 4.5 12.0007C4.36722 12.0007 4.23988 11.9479 4.146 11.854C4.05211 11.7602 3.99937 11.6328 3.99937 11.5C3.99937 11.3673 4.05211 11.2399 4.146 11.146L11.146 4.14604C11.1924 4.09948 11.2476 4.06253 11.3084 4.03733C11.3691 4.01212 11.4342 3.99915 11.5 3.99915C11.5658 3.99915 11.6309 4.01212 11.6916 4.03733C11.7524 4.06253 11.8076 4.09948 11.854 4.14604V4.14604Z" fill="white"/>
<path fill-rule="evenodd" clip-rule="evenodd" d="M4.146 4.14604C4.09944 4.19248 4.06249 4.24766 4.03729 4.30841C4.01208 4.36915 3.99911 4.43427 3.99911 4.50004C3.99911 4.56581 4.01208 4.63093 4.03729 4.69167C4.06249 4.75242 4.09944 4.80759 4.146 4.85404L11.146 11.854C11.2399 11.9479 11.3672 12.0007 11.5 12.0007C11.6328 12.0007 11.7601 11.9479 11.854 11.854C11.9479 11.7602 12.0006 11.6328 12.0006 11.5C12.0006 11.3673 11.9479 11.2399 11.854 11.146L4.854 4.14604C4.80756 4.09948 4.75238 4.06253 4.69163 4.03733C4.63089 4.01212 4.56577 3.99915 4.5 3.99915C4.43423 3.99915 4.36911 4.01212 4.30837 4.03733C4.24762 4.06253 4.19245 4.09948 4.146 4.14604V4.14604Z" fill="white"/>
</svg>
