<svg width="119" height="35" viewBox="0 0 119 35" fill="none" xmlns="http://www.w3.org/2000/svg">
<path d="M54.5724 12.3804L53.9356 16.0212H56.4967L56.0675 18.5131H53.4926L52.0806 26.9023C52.0529 27.133 52.0483 27.3407 52.0668 27.5252C52.1221 28.1251 52.4913 28.4389 53.1742 28.4666C53.5157 28.4666 53.9033 28.4251 54.3371 28.342L54.1156 30.9723C53.4327 31.1661 52.7451 31.263 52.0529 31.263C50.9085 31.2446 50.0502 30.8569 49.478 30.1002C48.915 29.3341 48.6935 28.3236 48.8135 27.0684L50.2117 18.5131H47.8168L48.2598 16.0212H50.6409L51.2777 12.3804H54.5724Z" fill="#3C9AE8"/>
<path d="M65.4812 26.8469C65.6381 25.9332 65.0428 25.301 63.6954 24.9503C62.3571 24.5904 61.4435 24.3043 60.9543 24.092C59.0531 23.2799 58.1349 22.0432 58.1995 20.382C58.2456 19.0345 58.8547 17.9224 60.0268 17.0457C61.2081 16.1597 62.6202 15.7259 64.2629 15.7444C65.8503 15.7628 67.1424 16.2104 68.1391 17.0872C69.1451 17.9639 69.6389 19.113 69.6204 20.5342L66.3672 20.5204C66.3856 19.8282 66.1964 19.2883 65.7996 18.9007C65.4027 18.5038 64.8582 18.2962 64.166 18.2777C63.4369 18.2777 62.8094 18.4577 62.2833 18.8176C61.7665 19.1776 61.4665 19.6483 61.3835 20.2297C61.2543 21.0695 61.8449 21.6556 63.1555 21.9878C64.466 22.3108 65.435 22.6108 66.0626 22.8876C67.89 23.6906 68.7713 24.9457 68.7067 26.6531C68.6606 27.6037 68.3468 28.4343 67.7654 29.1449C67.1932 29.8464 66.4225 30.3863 65.4535 30.7646C64.4844 31.1338 63.4554 31.3045 62.3664 31.2769C60.7328 31.2584 59.3762 30.7831 58.2964 29.851C57.2258 28.9188 56.6997 27.7237 56.7182 26.2655L59.8884 26.2793C59.9068 27.0823 60.1468 27.6914 60.6082 28.1067C61.0697 28.522 61.7019 28.7343 62.5048 28.7435C63.317 28.7435 63.9907 28.5774 64.526 28.2451C65.0705 27.9036 65.3889 27.4376 65.4812 26.8469Z" fill="#3C9AE8"/>
<path d="M78.2173 12.3804L77.5805 16.0212H80.1415L79.7124 18.5131H77.1375L75.7254 26.9023C75.6977 27.133 75.6931 27.3407 75.7116 27.5252C75.767 28.1251 76.1361 28.4389 76.8191 28.4666C77.1605 28.4666 77.5482 28.4251 77.9819 28.342L77.7604 30.9723C77.0775 31.1661 76.3899 31.263 75.6977 31.263C74.5533 31.2446 73.695 30.8569 73.1228 30.1002C72.5599 29.3341 72.3384 28.3236 72.4583 27.0684L73.8565 18.5131H71.4616L71.9046 16.0212H74.2857L74.9225 12.3804H78.2173Z" fill="#3C9AE8"/>
<path d="M86.9526 31.2769C85.6513 31.2492 84.5207 30.9215 83.5609 30.294C82.6103 29.6664 81.9043 28.8081 81.4428 27.7191C80.9906 26.63 80.8199 25.4164 80.9306 24.0782L80.9721 23.5106C81.1383 21.9878 81.5813 20.6219 82.3011 19.4129C83.0302 18.1947 83.9347 17.2718 85.0145 16.6442C86.0943 16.0166 87.2664 15.7167 88.5307 15.7444C90.4042 15.7813 91.8071 16.4781 92.7392 17.8347C93.6805 19.1914 94.0359 20.9588 93.8051 23.1368L93.6113 24.5766H84.1839C84.1008 25.7671 84.3407 26.7269 84.9037 27.456C85.4667 28.1851 86.2419 28.5589 87.2294 28.5774C88.6415 28.6235 89.9428 28.0098 91.1333 26.7362L92.7946 28.4805C92.167 29.3757 91.341 30.0725 90.3166 30.5708C89.2921 31.06 88.1708 31.2953 86.9526 31.2769ZM88.3508 18.43C86.6157 18.3746 85.3144 19.6021 84.4469 22.1124L90.6627 22.1263L90.718 21.8355C90.7826 21.411 90.7872 20.9957 90.7319 20.5896C90.6303 19.9344 90.3719 19.4175 89.9566 19.0391C89.5413 18.6607 89.006 18.4577 88.3508 18.43Z" fill="#3C9AE8"/>
<path d="M104.022 26.8469C104.179 25.9332 103.583 25.301 102.236 24.9503C100.898 24.5904 99.984 24.3043 99.4949 24.092C97.5937 23.2799 96.6754 22.0432 96.74 20.382C96.7861 19.0345 97.3952 17.9224 98.5673 17.0457C99.7487 16.1597 101.161 15.7259 102.803 15.7444C104.391 15.7628 105.683 16.2104 106.68 17.0872C107.686 17.9639 108.179 19.113 108.161 20.5342L104.908 20.5204C104.926 19.8282 104.737 19.2883 104.34 18.9007C103.943 18.5038 103.399 18.2962 102.707 18.2777C101.977 18.2777 101.35 18.4577 100.824 18.8176C100.307 19.1776 100.007 19.6483 99.924 20.2297C99.7948 21.0695 100.385 21.6556 101.696 21.9878C103.007 22.3108 103.976 22.6108 104.603 22.8876C106.43 23.6906 107.312 24.9457 107.247 26.6531C107.201 27.6037 106.887 28.4343 106.306 29.1449C105.734 29.8464 104.963 30.3863 103.994 30.7646C103.025 31.1338 101.996 31.3045 100.907 31.2769C99.2734 31.2584 97.9167 30.7831 96.8369 29.851C95.7663 28.9188 95.2403 27.7237 95.2587 26.2655L98.4289 26.2793C98.4474 27.0823 98.6873 27.6914 99.1488 28.1067C99.6102 28.522 100.242 28.7343 101.045 28.7435C101.857 28.7435 102.531 28.5774 103.066 28.2451C103.611 27.9036 103.929 27.4376 104.022 26.8469Z" fill="#3C9AE8"/>
<path d="M116.758 12.3804L116.121 16.0212H118.682L118.253 18.5131H115.678L114.266 26.9023C114.238 27.133 114.234 27.3407 114.252 27.5252C114.307 28.1251 114.677 28.4389 115.36 28.4666C115.701 28.4666 116.089 28.4251 116.522 28.342L116.301 30.9723C115.618 31.1661 114.93 31.263 114.238 31.263C113.094 31.2446 112.236 30.8569 111.663 30.1002C111.1 29.3341 110.879 28.3236 110.999 27.0684L112.397 18.5131H110.002L110.445 16.0212H112.826L113.463 12.3804H116.758Z" fill="#3C9AE8"/>
<path d="M37.3792 13.2637C37.1695 13.5737 37.0453 13.9336 37.0191 14.3069C36.993 14.6803 37.0659 15.0539 37.2304 15.3901C37.7581 16.6219 38.1296 17.9148 38.3361 19.2389C38.8835 22.6626 38.3715 26.1719 36.8689 29.2966C36.6864 29.6393 36.4136 29.9256 36.08 30.1242C35.7464 30.3229 35.3647 30.4264 34.9764 30.4236H8.0778C7.68734 30.4244 7.30419 30.3177 6.97037 30.1151C6.63655 29.9126 6.36494 29.622 6.18533 29.2753C4.82419 26.5141 4.23787 23.4353 4.48887 20.367C4.73987 17.2988 5.81879 14.3562 7.6106 11.8529C9.40241 9.34959 11.8399 7.37945 14.6634 6.15249C17.4868 4.92554 20.5902 4.48776 23.6429 4.88583C25.1874 5.06737 26.6982 5.46833 28.1295 6.0766C28.4657 6.24112 28.8393 6.31399 29.2127 6.28786C29.5861 6.26172 29.9459 6.1375 30.2559 5.92775C30.5788 5.71499 30.8376 5.41819 31.0045 5.06928C31.1713 4.72037 31.2398 4.33258 31.2026 3.94764C31.1654 3.5627 31.024 3.19518 30.7934 2.88466C30.5629 2.57413 30.2521 2.33235 29.8944 2.18533C25.7867 0.423965 21.2284 0.00173244 16.867 0.978611C12.5056 1.95549 8.56292 4.2818 5.59899 7.62711C2.63507 10.9724 0.800607 15.1666 0.356193 19.6139C-0.0882204 24.0612 0.880011 28.5354 3.12335 32.4011C3.49443 33.0439 4.02725 33.5783 4.66887 33.9513C5.31048 34.3244 6.03855 34.523 6.78072 34.5275H36.231C36.9804 34.5305 37.7172 34.3354 38.367 33.962C39.0167 33.5885 39.5562 33.0501 39.9309 32.4011C41.5733 29.5548 42.5336 26.3666 42.7365 23.0868C42.9394 19.8069 42.3794 16.5247 41.1004 13.4976C40.9384 13.1527 40.6867 12.8576 40.3715 12.6432C40.0564 12.4289 39.6894 12.3032 39.309 12.2793C38.9287 12.2553 38.5489 12.3341 38.2094 12.5073C37.8699 12.6805 37.5832 12.9418 37.3792 13.2637Z" fill="#3C9AE8"/>
<path d="M18.5183 18.771C17.7203 19.569 17.272 20.6513 17.272 21.7798C17.272 22.3386 17.382 22.8919 17.5959 23.4082C17.8097 23.9244 18.1231 24.3935 18.5183 24.7886C18.9134 25.1838 19.3825 25.4972 19.8987 25.711C20.415 25.9249 20.9683 26.0349 21.5271 26.0349C22.6556 26.0349 23.7379 25.5866 24.5359 24.7886L36.5712 6.73572L18.5183 18.771Z" fill="#3C9AE8"/>
</svg>
