<svg width="20" height="22" viewBox="0 0 20 22" fill="none" xmlns="http://www.w3.org/2000/svg">
<path d="M15.7425 3.09L13.2125 5.03L14.1225 8.09L11.4925 6.28L8.8625 8.09L9.7725 5.03L7.2425 3.09L10.4325 3L11.4925 0L12.5525 3L15.7425 3.09ZM19.2425 10L17.6025 11.25L18.1925 13.23L16.4925 12.06L14.7925 13.23L15.3825 11.25L13.7425 10L15.8025 9.95L16.4925 8L17.1825 9.95L19.2425 10ZM16.9625 14.95C17.7925 14.87 18.6825 16.05 18.1525 16.8C17.8325 17.25 17.4925 17.67 17.0725 18.07C13.1625 22 6.8325 22 2.9325 18.07C-0.9775 14.17 -0.9775 7.83 2.9325 3.93C3.3325 3.53 3.7525 3.17 4.2025 2.85C4.9525 2.32 6.1325 3.21 6.0525 4.04C5.7825 6.9 6.7425 9.87 8.9425 12.06C9.98211 13.1052 11.2408 13.9066 12.6277 14.4064C14.0146 14.9062 15.4951 15.0918 16.9625 14.95ZM15.3225 16.97C12.3868 16.8012 9.61351 15.5675 7.5225 13.5C5.3525 11.31 4.1925 8.5 4.0325 5.68C1.2225 8.82 1.3325 13.64 4.3425 16.66C7.3625 19.67 12.1825 19.78 15.3225 16.97Z" fill="#D8BD14"/>
</svg>
