<svg width="31" height="31" viewBox="0 0 31 31" fill="none" xmlns="http://www.w3.org/2000/svg">
<path d="M23.7617 9.30372L22.55 7.89406C21.5226 6.81497 20.2864 5.95621 18.9166 5.37003C17.5468 4.78386 16.072 4.48253 14.582 4.48438C8.50049 4.48438 3.56641 9.41847 3.56641 15.5C3.56641 21.5816 8.50049 26.5156 14.582 26.5156C16.8603 26.5155 19.0826 25.8092 20.943 24.4941C22.8033 23.179 24.2104 21.3196 24.9706 19.1719" stroke="white" stroke-miterlimit="10" stroke-linecap="round"/>
<path d="M27.4336 6.40181V12.7461C27.4336 12.9896 27.3369 13.2231 27.1647 13.3952C26.9926 13.5674 26.7591 13.6641 26.5156 13.6641H20.1713C19.3532 13.6641 18.9435 12.6756 19.5219 12.0972L25.8667 5.75235C26.4451 5.17288 27.4336 5.58367 27.4336 6.40181Z" fill="white"/>
</svg>
