<svg width="21" height="20" viewBox="0 0 21 20" fill="none" xmlns="http://www.w3.org/2000/svg">
<path d="M5.99305 10C5.99305 12.761 8.23905 15.007 11 15.007C13.761 15.007 16.007 12.761 16.007 10C16.007 7.239 13.761 4.993 11 4.993C8.23905 4.993 5.99305 7.239 5.99305 10ZM11 6.993C12.658 6.993 14.007 8.342 14.007 10C14.007 11.658 12.658 13.007 11 13.007C9.34205 13.007 7.99305 11.658 7.99305 10C7.99305 8.342 9.34205 6.993 11 6.993ZM9.99805 17H11.998V20H9.99805V17ZM9.99805 0H11.998V3H9.99805V0ZM0.998047 9H3.99805V11H0.998047V9ZM17.998 9H20.998V11H17.998V9Z" fill="#FADB14"/>
<path d="M3.21899 16.363L5.33899 14.241L6.75399 15.655L4.63399 17.777L3.21899 16.363Z" fill="#FADB14"/>
<path d="M15.24 4.34398L17.362 2.22198L18.776 3.63598L16.654 5.75798L15.24 4.34398Z" fill="#FADB14"/>
<path d="M5.34197 5.75899L3.21997 3.63699L4.63497 2.22299L6.75497 4.34499L5.34197 5.75899Z" fill="#FADB14"/>
<path d="M18.776 16.364L17.362 17.778L15.24 15.656L16.654 14.242L18.776 16.364Z" fill="#FADB14"/>
</svg>
