<svg width="43" height="35" viewBox="0 0 43 35" fill="none" xmlns="http://www.w3.org/2000/svg">
<path d="M37.3792 13.2637C37.1695 13.5737 37.0453 13.9336 37.0191 14.3069C36.993 14.6803 37.0659 15.0539 37.2304 15.3901C37.7581 16.6219 38.1296 17.9148 38.3361 19.2389C38.8835 22.6626 38.3715 26.1719 36.8689 29.2966C36.6864 29.6393 36.4136 29.9256 36.08 30.1242C35.7464 30.3229 35.3647 30.4264 34.9764 30.4236H8.0778C7.68734 30.4244 7.30419 30.3177 6.97037 30.1151C6.63655 29.9126 6.36494 29.622 6.18533 29.2753C4.82419 26.5141 4.23787 23.4353 4.48887 20.367C4.73987 17.2988 5.81879 14.3562 7.6106 11.8529C9.40241 9.34959 11.8399 7.37945 14.6634 6.15249C17.4868 4.92554 20.5902 4.48776 23.6429 4.88583C25.1874 5.06737 26.6982 5.46833 28.1295 6.0766C28.4657 6.24112 28.8393 6.31399 29.2127 6.28786C29.5861 6.26172 29.9459 6.1375 30.2559 5.92775C30.5788 5.71499 30.8376 5.41819 31.0045 5.06928C31.1713 4.72038 31.2398 4.33258 31.2026 3.94764C31.1654 3.5627 31.024 3.19518 30.7934 2.88466C30.5629 2.57413 30.2521 2.33235 29.8944 2.18533C25.7867 0.423965 21.2284 0.00173244 16.867 0.978611C12.5056 1.95549 8.56292 4.2818 5.59899 7.62711C2.63507 10.9724 0.800607 15.1666 0.356193 19.6139C-0.0882204 24.0612 0.880011 28.5354 3.12335 32.4011C3.49443 33.0439 4.02725 33.5783 4.66887 33.9513C5.31048 34.3244 6.03855 34.523 6.78072 34.5275H36.231C36.9804 34.5305 37.7172 34.3354 38.367 33.962C39.0167 33.5885 39.5562 33.0501 39.9309 32.4011C41.5733 29.5548 42.5336 26.3666 42.7365 23.0868C42.9394 19.8069 42.3794 16.5247 41.1004 13.4976C40.9384 13.1527 40.6867 12.8576 40.3715 12.6432C40.0564 12.4289 39.6894 12.3032 39.309 12.2793C38.9287 12.2553 38.5489 12.3341 38.2094 12.5073C37.8699 12.6805 37.5832 12.9418 37.3792 13.2637Z" fill="#3C9AE8"/>
<path d="M18.5183 18.771C17.7203 19.569 17.272 20.6513 17.272 21.7798C17.272 22.3386 17.382 22.8919 17.5959 23.4082C17.8097 23.9244 18.1231 24.3935 18.5183 24.7886C18.9134 25.1838 19.3825 25.4972 19.8987 25.711C20.415 25.9249 20.9683 26.0349 21.5271 26.0349C22.6556 26.0349 23.7379 25.5866 24.5359 24.7886L36.5712 6.73572L18.5183 18.771Z" fill="#3C9AE8"/>
</svg>
